<svg width="500" height="400" viewBox="-250 -200 500 400" xmlns="http://www.w3.org/2000/svg">
  <style>
    text {
      font-family: 'Arial', sans-serif;
      font-size: 14px;
    }
    .axis-label {
      font-weight: bold;
      font-size: 16px;
    }
    .dim-label {
      font-size: 12px;
      fill: #666;
    }
  </style>
  
  <!-- Background -->
  <rect x="-250" y="-200" width="500" height="400" fill="#fff0cc"/>
  
  <!-- Coordinate system center -->
  <circle cx="0" cy="0" r="5" fill="#000"/>
  <text x="-50" y="-5" class="dim-label">(0,0,...)</text>
  
  <!-- 1 (numeric) axis -->
  <line x1="0" y1="0" x2="150" y2="0" stroke="#2196F3" stroke-width="2"/>
  <polygon points="155,0 145,-4 145,4" fill="#2196F3"/>
  <text x="160" y="5" class="axis-label">1</text>
  
  <!-- i (imaginary) axis -->
  <line x1="0" y1="0" x2="0" y2="-150" stroke="#4CAF50" stroke-width="2"/>
  <polygon points="0,-155 -4,-145 4,-145" fill="#4CAF50"/>
  <text x="10" y="-145" class="axis-label">i</text>
  
  <!-- [1,2,3] axis -->
  <line x1="0" y1="0" x2="-150" y2="150" stroke="#FF9800" stroke-width="2"/>
  <polygon points="-154,154 -150,144 -144,150" fill="#FF9800"/>
  <text x="-205" y="140" class="axis-label">[1,2,3]</text>
  
  <!-- "string" axis -->
  <line x1="0" y1="0" x2="100" y2="150" stroke="#9C27B0" stroke-width="2"/>
  <polygon points="103,155 101,144 93,149" fill="#9C27B0"/>
  <text x="110" y="160" class="axis-label">"string"</text>
  
  <!-- VectorNumber -->
  <line x1="0" y1="0" x2="118" y2="-78" stroke="#F44336" stroke-width="3"/>
  <polygon points="120,-80 107,-78 113,-68" fill="#F44336"/>
  <text x="120" y="-90" text-anchor="middle" font-weight="bold" fill="#F44336">
    (3 + 2i + 3⋅"string" + 4.5⋅[1,2,3])
  </text>
  
  <!-- Projection lines to axes -->
  <!-- To numeric axis -->
  <line x1="120" y1="-80" x2="120" y2="0" stroke="#2196F3" stroke-width="1" stroke-dasharray="5,5"/>
  <circle cx="120" cy="0" r="3" fill="#2196F3"/>
  <text x="120" y="15" class="dim-label">3</text>
  
  <!-- To imaginary axis -->
  <line x1="120" y1="-80" x2="0" y2="-80" stroke="#4CAF50" stroke-width="1" stroke-dasharray="5,5"/>
  <circle cx="0" cy="-80" r="3" fill="#4CAF50"/>
  <text x="-15" y="-80" class="dim-label">2</text>
  
  <!-- To [1,2,3] axis -->
  <line x1="120" y1="-80" x2="-90" y2="90" stroke="#FF9800" stroke-width="1" stroke-dasharray="5,5"/>
  <circle cx="-90" cy="90" r="3" fill="#FF9800"/>
  <text x="-115" y="90" class="dim-label">4.5</text>
  
  <!-- To "string" axis -->
  <line x1="120" y1="-80" x2="55" y2="83" stroke="#9C27B0" stroke-width="1" stroke-dasharray="5,5"/>
  <circle cx="55" cy="83" r="3" fill="#9C27B0"/>
  <text x="45" y="95" class="dim-label">3</text>
  
  <!-- Legend -->
  <rect x="-220" y="-180" width="180" height="145" fill="white" stroke="#ccc" stroke-width="1"/>

  <line x1="-210" y1="-160" x2="-202" y2="-168" stroke="#F44336" stroke-width="3"/>
  <polygon points="-200,-170 -205,-169 -201,-165" fill="#F44336"/>
  <text x="-190" y="-160">VectorNumber</text>

  <line x1="-212" y1="-145" x2="-200" y2="-145" stroke="#2196F3" stroke-width="2"/>
  <text x="-190" y="-140">Real dimension</text>

  <line x1="-212" y1="-125" x2="-200" y2="-125" stroke="#4CAF50" stroke-width="2"/>
  <text x="-190" y="-120">Imaginary dimension</text>

  <line x1="-212" y1="-105" x2="-200" y2="-105" stroke="#9C27B0" stroke-width="2"/>
  <text x="-190" y="-100">"string" dimension</text>

  <line x1="-212" y1="-85" x2="-200" y2="-85" stroke="#FF9800" stroke-width="2"/>
  <text x="-190" y="-80">[1,2,3] dimension</text>

  <line x1="-212" y1="-65" x2="-200" y2="-65" stroke="gray" stroke-width="2"/>
  <text x="-190" y="-60">Zero dimensions</text>
  <text x="-190" y="-45">(not portrayed)</text>
</svg>
