<svg xmlns="http://www.w3.org/2000/svg" width="500" height="400" viewBox="-250 -200 500 400"><style>text{font-family:&quot;Arial&quot;,sans-serif;font-size:14px}.axis-label{font-weight:700;font-size:16px}.dim-label{font-size:12px;fill:#666}</style><path fill="#fff0cc" d="M-250-200h500v400h-500z"/><circle r="5"/><text x="-50" y="-5" class="dim-label">(0,0,...)</text><path stroke="#2196f3" stroke-width="2" d="M0 0h150"/><path fill="#2196f3" d="m155 0-10-4v8z"/><text x="160" y="5" class="axis-label">1</text><path stroke="#4caf50" stroke-width="2" d="M0 0v-150"/><path fill="#4caf50" d="m0-155-4 10h8z"/><text x="10" y="-145" class="axis-label">i</text><path stroke="#ff9800" stroke-width="2" d="m0 0-150 150"/><path fill="#ff9800" d="m-154 154 4-10 6 6z"/><text x="-205" y="140" class="axis-label">[1,2,3]</text><path stroke="#9c27b0" stroke-width="2" d="m0 0 100 150"/><path fill="#9c27b0" d="m103 155-2-11-8 5z"/><text x="110" y="160" class="axis-label">&quot;string&quot;</text><path stroke="#f44336" stroke-width="3" d="m0 0 118-78"/><path fill="#f44336" d="m120-80-13 2 6 10z"/><text x="120" y="-90" fill="#f44336" font-weight="bold" text-anchor="middle">(3 + 2i + 3⋅&quot;string&quot; + 4.5⋅[1,2,3])</text><path stroke="#2196f3" stroke-dasharray="5,5" d="M120-80V0"/><circle cx="120" r="3" fill="#2196f3"/><text x="120" y="15" class="dim-label">3</text><path stroke="#4caf50" stroke-dasharray="5,5" d="M120-80H0"/><circle cy="-80" r="3" fill="#4caf50"/><text x="-15" y="-80" class="dim-label">2</text><path stroke="#ff9800" stroke-dasharray="5,5" d="M120-80-110 110"/><circle cx="-110" cy="110" r="3" fill="#ff9800"/><text x="-135" y="110" class="dim-label">4.5</text><path stroke="#9c27b0" stroke-dasharray="5,5" d="M120-80 55 83"/><circle cx="55" cy="83" r="3" fill="#9c27b0"/><text x="40" y="95" class="dim-label">3</text><path fill="#fff" stroke="#ccc" d="M-220-180h180v145h-180z"/><path stroke="#f44336" stroke-width="3" d="m-210-160 8-8"/><path fill="#f44336" d="m-200-170-5 1 4 4z"/><text x="-190" y="-160">VectorNumber</text><path stroke="#2196f3" stroke-width="2" d="M-212-145h12"/><text x="-190" y="-140">Real dimension</text><path stroke="#4caf50" stroke-width="2" d="M-212-125h12"/><text x="-190" y="-120">Imaginary dimension</text><path stroke="#9c27b0" stroke-width="2" d="M-212-105h12"/><text x="-190" y="-100">&quot;string&quot; dimension</text><path stroke="#ff9800" stroke-width="2" d="M-212-85h12"/><text x="-190" y="-80">[1,2,3] dimension</text><path stroke="gray" stroke-width="2" d="M-212-65h12"/><text x="-190" y="-60">Zero dimensions</text><text x="-190" y="-45">(not portrayed)</text></svg>
